<svg id="Layer_1" data-name="Layer 1" xmlns="http://www.w3.org/2000/svg" viewBox="0 0 214.36 247.53"><defs><style>.cls-1{fill:#35c0f0;}.cls-2{fill:#fff;}</style></defs><title>backet</title><polygon class="cls-1" points="214.37 185.65 107.18 247.53 0 185.65 0 61.88 107.18 0 214.37 61.88 214.37 185.65"/><path class="cls-2" d="M314.4,403h7.25L310.9,384.59a3.13,3.13,0,0,0-5.4,3.16Z" transform="translate(-190.46 -297.18)"/><path class="cls-2" d="M289.8,387.75a3.12,3.12,0,1,0-5.39-3.16L273.66,403h7.25Z" transform="translate(-190.46 -297.18)"/><path class="cls-2" d="M333.65,408.68h-72A5.31,5.31,0,0,0,256.3,414v5.89a5.31,5.31,0,0,0,5.31,5.31h1.67L268.4,453a7.29,7.29,0,0,0,6.74,5.87h43.93a7.3,7.3,0,0,0,6.74-5.87l5.15-27.8h2.7a5.32,5.32,0,0,0,5.32-5.32V414A5.33,5.33,0,0,0,333.65,408.68Zm-48,27.77v12a3,3,0,0,1-6,0v-16.8a3,3,0,1,1,6,0Zm9.64,0v12a3,3,0,0,1-6,0v-16.8a3,3,0,0,1,3-3,3.06,3.06,0,0,1,3,3Zm9.69,7v5a3,3,0,0,1-6,0v-16.8a3.07,3.07,0,0,1,3-3,3,3,0,0,1,3,3Zm9.64,0v5a3,3,0,0,1-6,0v-16.8a3,3,0,1,1,6,0Z" transform="translate(-190.46 -297.18)"/></svg>