<svg id="Layer_1" data-name="Layer 1" xmlns="http://www.w3.org/2000/svg" viewBox="0 0 214.37 247.53"><defs><style>.cls-1{fill:#fff;}</style></defs><title>backetblack</title><polygon points="214.37 185.65 107.18 247.53 0 185.65 0 61.88 107.18 0 214.37 61.88 214.37 185.65"/><path class="cls-1" d="M123.94,105.82h7.25L120.44,87.41a3.13,3.13,0,0,0-5.4,3.16Z" transform="translate(0 0)"/><path class="cls-1" d="M99.34,90.57A3.12,3.12,0,1,0,94,87.41L83.2,105.82h7.25Z" transform="translate(0 0)"/><path class="cls-1" d="M143.19,111.5h-72a5.31,5.31,0,0,0-5.35,5.27v5.94A5.31,5.31,0,0,0,71.15,128h1.67l5.12,27.8a7.29,7.29,0,0,0,6.74,5.87h43.93a7.31,7.31,0,0,0,6.74-5.87L140.5,128h2.7a5.32,5.32,0,0,0,5.32-5.32h0v-5.88A5.33,5.33,0,0,0,143.19,111.5Zm-48,27.77v12a3,3,0,0,1-6,0v-16.8a3,3,0,0,1,6,0Zm9.64,0v12a3,3,0,0,1-6,0v-16.8a3,3,0,0,1,3-3,3.06,3.06,0,0,1,3,3Zm9.69,7v5a3,3,0,0,1-6,0v-16.8a3.08,3.08,0,0,1,3-3,3,3,0,0,1,3,3Zm9.64,0v5a3,3,0,0,1-6,0v-16.8a3,3,0,0,1,6,0Z" transform="translate(0 0)"/></svg>