<svg id="Layer_1" data-name="Layer 1" xmlns="http://www.w3.org/2000/svg" viewBox="0 0 185.15 79.87"><defs><style>.cls-1{fill:#31338f;}.cls-1,.cls-2,.cls-3,.cls-4{fill-rule:evenodd;}.cls-2{fill:#fff;}.cls-3{fill:#00aeef;}.cls-4{fill:#333b97;}</style></defs><title>Blue</title><path class="cls-1" d="M14.29,105c-16.9,16.9,1.95,30.67,15.05,33.26,4.46.88,8.15,2,12.66,2.54a170.4,170.4,0,0,0,38.63-.21,232.75,232.75,0,0,0,26.49-4.44A214.54,214.54,0,0,0,150.62,122c2.32-1,4.51-2,6.63-3.12a9.87,9.87,0,0,0,3.28.43,12.31,12.31,0,0,0,4.49-.86,16.24,16.24,0,0,0,4.12-2.27,8.64,8.64,0,0,0,7.19,3,15,15,0,0,0,8.79-3,28.65,28.65,0,0,0,6.63-6.51,4.9,4.9,0,0,0,.58-4.91l-.2-.49-.68-.91-1.54-.82h-.06a5.28,5.28,0,0,0-3.9-5.87,27.4,27.4,0,0,0,2.68-4.94,16.65,16.65,0,0,0,1-10.07c-2.08-9.09-12-14-20.08-16.21A80.41,80.41,0,0,0,156.93,63a169.82,169.82,0,0,0-38.63.21,232.75,232.75,0,0,0-26.49,4.44c-7.06,1.54-13.57,3.24-19.93,5.24a3.44,3.44,0,0,0-2.5.8c-3.1,1-6.17,2.11-9.27,3.3a9.26,9.26,0,0,0-2.91-2.56,20.79,20.79,0,0,0-10.57-2.33,51.86,51.86,0,0,0-12.15,1.6,53.22,53.22,0,0,0-11,3.57l-.18.07-.9.55-.78,1.18a3.78,3.78,0,0,0,.06,2.55l.24.49.06.09a7.18,7.18,0,0,0,6.71,3.66A15.91,15.91,0,0,0,32.82,85c-2.18,2.31-4,4.3-6,6.71-1.38,1.6-3,3.55-4.51,5.6a54.4,54.4,0,0,0-7.68,7.65" transform="translate(-7.59 -61.97)"/><path class="cls-2" d="M42.1,84.76a7.6,7.6,0,0,0-1-2.09,34.22,34.22,0,0,1,6.54-.74h.44C46,82.85,44,83.79,42.1,84.76Z" transform="translate(-7.59 -61.97)"/><path class="cls-3" d="M181.88,96.6a16.07,16.07,0,0,0-8,3.61c-.52-2.86-3.15-4-5.79-4a14.34,14.34,0,0,0-7.29,2.1c1.07-2,1.51-5.08-.12-7a4.44,4.44,0,0,0-3.78-1.57,7.05,7.05,0,0,0-5.28,2.75,7.94,7.94,0,0,0-2.21,5.6,3.38,3.38,0,0,0-1.27.91,37,37,0,0,0-3.32,3.76,4.72,4.72,0,0,0-.26-1.17,5.42,5.42,0,0,0-1.64-2.6l-.59-.5L140.85,98l-1.88.44-.93.92-.43.59c-.33-2.11-2.25-4.75-4.7-4.38a50.17,50.17,0,0,0,4.09-8.8,16.08,16.08,0,0,0,.75-8.57c-.9-4-4.37-6.18-8.57-6.09-6.07.13-11.8,2.77-16.87,5.92-8,5-14.14,10.92-18.29,19.16a7.26,7.26,0,0,0-3.33-.68,14.17,14.17,0,0,0-5.91,1.29A19.92,19.92,0,0,0,78,102.94a4.3,4.3,0,0,0-.27-1.28,5.4,5.4,0,0,0-1.63-2.6l-.59-.5L74,98l-1.89.44-.93.92-.42.59A6.42,6.42,0,0,0,69,96.54a3.29,3.29,0,0,0-4.88.08l6.5-8L73,85.49l1.31-1.92c1.63-2.38,2.64-4.88,1.4-7.47a6.1,6.1,0,0,0-.39-.72c5.52-1.66,11.27-3.17,17.21-4.5,48-10.73,90.06-5.53,93.89,11.6C187.41,86.92,185.74,91.72,181.88,96.6Z" transform="translate(-7.59 -61.97)"/><path class="cls-3" d="M65.34,78.63l-3.43,4.29A9.77,9.77,0,0,0,61.58,80Z" transform="translate(-7.59 -61.97)"/><path class="cls-3" d="M16.47,107.11c-5.16,6.78,2.13,14.47,8.11,13.69,2.72-.36,5.54-.47,8.11-1.42a27.79,27.79,0,0,0,11-7.29,6.35,6.35,0,0,0,7,6.43,10.29,10.29,0,0,0,5.17-1.61c2.71,2.49,6.91,1.49,9.66-.41,3,3.23,7.54,1.78,10.59-.32a8.65,8.65,0,0,0,6.56,3c-3.29,2.58-5.08,5.64-5.17,9.55A7.93,7.93,0,0,0,80,134.84a8.28,8.28,0,0,0,4,2c-38.07,4.83-93.77-4.24-64.58-33.42" transform="translate(-7.59 -61.97)"/><path class="cls-3" d="M92.94,135.56l.72-.32a41.86,41.86,0,0,0,6.63-3.64A85.92,85.92,0,0,0,114,120.07l1.33.06a3.25,3.25,0,0,0,3-2.38,3.3,3.3,0,0,0-.17-2.17c1-1.15,1.9-2.13,2.89-3.3-.21,3.53,2.05,6.25,5.72,6.09a10,10,0,0,0,5.53-1.87c2.78,3,6.87,2,9.84.17a6.61,6.61,0,0,0,5.05,1.85,11.11,11.11,0,0,0,6.06-2.27c.15.19.32.37.48.54a216.49,216.49,0,0,1-47.38,16.14C101.85,134,97.35,134.82,92.94,135.56Z" transform="translate(-7.59 -61.97)"/><path class="cls-3" d="M50.29,84.61a16.8,16.8,0,0,1-3.65,3.57l0,0A30,30,0,0,1,40.13,92c.55-.77,1-1.43,1.5-2.23a5.31,5.31,0,0,0,.56-1.26C44.76,87.19,47.47,85.88,50.29,84.61Z" transform="translate(-7.59 -61.97)"/><path class="cls-4" d="M155.14,103.07a3.83,3.83,0,0,0,0-.47,5.17,5.17,0,0,0,.54-.11Z" transform="translate(-7.59 -61.97)"/><path class="cls-3" d="M51.14,96.83c-1.21,1.68-2.22,3.11-3.4,4.81A7.49,7.49,0,0,0,46.83,99,30.56,30.56,0,0,0,51.14,96.83Z" transform="translate(-7.59 -61.97)"/><path class="cls-3" d="M33.29,100.26a4.08,4.08,0,0,0,3.83,2.26,3,3,0,0,1,1.23.17,3.31,3.31,0,0,1-.86,2,.46.46,0,0,0-.07.07,13.81,13.81,0,0,1-2.92,2.63l-.06,0a14.6,14.6,0,0,1-9.26,3.08,17.79,17.79,0,0,1,2.05-3.11C29.31,104.82,31.11,102.71,33.29,100.26Z" transform="translate(-7.59 -61.97)"/><path class="cls-3" d="M102.35,111.74a3.83,3.83,0,0,0-.3-1.41c-.72-1.84.14-5.25,1-7.13,2.82-6.5,8.92-12.78,14.88-16.92l0,0A32.64,32.64,0,0,1,125.51,82l0,0a8.39,8.39,0,0,1,1.85-.48,9.87,9.87,0,0,1-.49,2.28s0,0,0,0a25.62,25.62,0,0,1-1.39,3.49c-3.91,8.1-10.82,17.28-17.19,24.13A42.36,42.36,0,0,0,102.35,111.74Z" transform="translate(-7.59 -61.97)"/><path class="cls-3" d="M89.39,126.51a18.54,18.54,0,0,1,3.36-2.17l0,0c1-.52,1.89-.93,2.95-1.37A26.68,26.68,0,0,1,89.39,126.51Z" transform="translate(-7.59 -61.97)"/><path class="cls-3" d="M167.1,107.75a9.54,9.54,0,0,1-2.41,1.55,5.6,5.6,0,0,1-2,.49,7.58,7.58,0,0,1,1.83-3.25A4.16,4.16,0,0,0,167.1,107.75Z" transform="translate(-7.59 -61.97)"/><path class="cls-2" d="M19,116.45c-4.38-4.91-.71-8,1.12-10.89Q26.26,95.75,37.81,84c.23-.23.45-.25.64-.06a4.75,4.75,0,0,1,1,2.11,2.79,2.79,0,0,1-.29,2.16q-1.34,2.46-7.53,9.53-5.25,6-6.65,7.77c-2.06,2.69-3.09,4.61-3.09,5.78q0,2.11,4,2.11a17.59,17.59,0,0,0,10.25-3.66q5.12-3.66,5.12-7.1,0-3-4.29-3.05a1.13,1.13,0,0,1-1-.58,5.19,5.19,0,0,1-.64-1.81.54.54,0,0,1,.47-.65,34.85,34.85,0,0,0,12.59-6Q54,86.26,54,82.7T47.63,79a38.67,38.67,0,0,0-9.16,1.3q-3.86,1.13-7.77,2.24a6,6,0,0,1-4.26,0,5.06,5.06,0,0,1-2-1.87c-.23-.35-.18-.61.18-.76a53.79,53.79,0,0,1,10.5-3.4A52.58,52.58,0,0,1,46.69,75c3.88,0,6.91.65,9.07,2A6.26,6.26,0,0,1,59,82.65q0,4.72-6.42,9.64A29.06,29.06,0,0,1,40.09,98c3.21.43,4.82,2.14,4.82,5.15q0,4.78-6.29,9.63a22.8,22.8,0,0,1-14.06,5.09,9,9,0,0,1-5.3-1.38" transform="translate(-7.59 -61.97)"/><path class="cls-2" d="M51.12,110.86c0,.74.45,1.11,1.34,1.11q3.38,0,8.19-6.08c.24-.27.41-.26.53,0a2,2,0,0,1-.18,2q-5.88,7.62-10.44,7.63c-2.6,0-3.91-1.31-3.91-3.91,0-2,1-4.51,2.92-7.58q1.57-2.45,8.63-11.89,5.71-7.17,13-16.27a.46.46,0,0,1,.7,0,4,4,0,0,1,1.17,1.45,2.61,2.61,0,0,1,.11,2c-.38,1.32-2,3.81-4.89,7.46q-5.35,6.52-10.66,13Q51.13,108.13,51.12,110.86Z" transform="translate(-7.59 -61.97)"/><path class="cls-2" d="M80.11,108q-5.65,7.44-10.21,7.45a2.94,2.94,0,0,1-2.16-.88,3.1,3.1,0,0,1-.87-2.3A5.65,5.65,0,0,1,67,111.2c-2.37,2.83-4.74,4.26-7.11,4.26a2.39,2.39,0,0,1-2.69-2.56q-.16-4.59,9.1-14.34a.37.37,0,0,1,.59,0A4,4,0,0,1,67.8,100a2.3,2.3,0,0,1-.29,2.14l-3.05,4.52c-1.22,1.89-1.82,3.25-1.82,4.06,0,.46.21.7.64.7.93,0,2.65-1.33,5.15-4a58,58,0,0,0,5-6.18c.2-.27.43-.27.71,0a2.75,2.75,0,0,1,.81,1.34,2,2,0,0,1,0,1.57s-.74,1.28-2.22,3.73a8.34,8.34,0,0,0-1.34,3.26c0,.46.25.7.76.7q3,0,7.64-5.93c.19-.27.37-.25.52,0A1.89,1.89,0,0,1,80.11,108Z" transform="translate(-7.59 -61.97)"/><path class="cls-2" d="M96.37,108a2.05,2.05,0,0,0,.23-2c-.11-.38-.31-.4-.58,0-3.58,4.6-7.21,6.91-10.86,6.91-2,0-2.87-1-2.75-2.87a6.76,6.76,0,0,1,.17-1.05,13.49,13.49,0,0,0,7.89-2c2.19-1.37,3.33-2.91,3.45-4.63q.18-2.87-3.21-2.87-4.72,0-9,4t-4.29,7.92a4.68,4.68,0,0,0,1.52,3.65,6.1,6.1,0,0,0,4.26,1.38Q90,116.29,96.37,108Zm-13.24-.47a14,14,0,0,1,3.12-4.08c1.34-1.23,2.46-1.85,3.35-1.85.51,0,.64.31.41.94a7,7,0,0,1-2.33,2.76A11.2,11.2,0,0,1,83.13,107.52Z" transform="translate(-7.59 -61.97)"/><path class="cls-2" d="M114.39,115.4a114.94,114.94,0,0,0,14.57-19q6.18-10,6.18-15.51c0-4-2-5.94-5.89-5.94q-6.54,0-15.4,5.48A47.44,47.44,0,0,0,100,93q-5.31,7.41-5.31,12.83a7.1,7.1,0,0,0,1.06,4,5.73,5.73,0,0,0,3,2.33.45.45,0,1,0,.64-.64,7.26,7.26,0,0,1-.46-2.69q0-6,5.18-13.14a53,53,0,0,1,12.16-11.71q7.56-5.4,12.11-5.41,2,0,2,2.34,0,5-6.31,15a122,122,0,0,1-14.52,18.56A43,43,0,0,0,90.36,118q-9.93,4.44-9.92,10.8a5.06,5.06,0,0,0,1.49,3.82A5.69,5.69,0,0,0,86,134.09q5.13,0,12.6-4.89a88.32,88.32,0,0,0,14.18-12.11q.75,0,2.16.12c.3,0,.5,0,.58-.18a.75.75,0,0,0-.12-.53A4,4,0,0,0,114.39,115.4Zm-27.5,14.52c-1.17,0-1.75-.56-1.75-1.68q0-3.2,6.31-6.51a40.56,40.56,0,0,1,15.3-4.41Q93.78,129.92,86.89,129.92Z" transform="translate(-7.59 -61.97)"/><path class="cls-2" d="M146.93,108q-5.67,7.44-10.21,7.45a2.94,2.94,0,0,1-2.16-.88,3.1,3.1,0,0,1-.87-2.3,5,5,0,0,1,.11-1.08c-2.37,2.83-4.75,4.26-7.12,4.26A2.39,2.39,0,0,1,124,112.9q-.16-4.59,9.1-14.34a.37.37,0,0,1,.59,0,4.14,4.14,0,0,1,.93,1.39,2.27,2.27,0,0,1-.3,2.14q-1.51,2.26-3,4.52c-1.21,1.89-1.81,3.25-1.81,4.06,0,.46.21.7.64.7.94,0,2.65-1.33,5.15-4a60.66,60.66,0,0,0,5-6.18q.28-.41.69,0a2.76,2.76,0,0,1,.82,1.34,1.93,1.93,0,0,1-.06,1.57s-.73,1.28-2.21,3.73a8.25,8.25,0,0,0-1.35,3.26c0,.46.26.7.76.7,2,0,4.53-2,7.65-5.93.19-.27.37-.25.52,0A1.91,1.91,0,0,1,146.93,108Z" transform="translate(-7.59 -61.97)"/><path class="cls-2" d="M157.1,92.72a4.33,4.33,0,0,0-3.25,1.75,5.22,5.22,0,0,0-1.52,3.32c0,1.32.61,2,1.81,2a4.33,4.33,0,0,0,3.23-1.63,5.15,5.15,0,0,0,1.48-3.49C158.85,93.36,158.27,92.72,157.1,92.72Z" transform="translate(-7.59 -61.97)"/><path class="cls-2" d="M143.47,112.1c0,2.33,1.21,3.51,3.62,3.51,2.91,0,6.32-2.54,10.2-7.61a1.74,1.74,0,0,0,.18-2,.66.66,0,0,0-.23-.24c-.08,0-.18,0-.29.18q-4.84,6.08-7.58,6.08-1.05,0-1.05-1.11a6.35,6.35,0,0,1,1.34-3l2.1-3.15a2.61,2.61,0,0,0,.34-2.34,3.17,3.17,0,0,0-1-1.4.57.57,0,0,0-.82.12,36.52,36.52,0,0,0-4.54,5.49Q143.47,110,143.47,112.1Z" transform="translate(-7.59 -61.97)"/><path class="cls-2" d="M173.16,108q-6.48,8.37-12.72,8.37a6.35,6.35,0,0,1-4.29-1.34,4.44,4.44,0,0,1-1.54-3.51q0-4.4,4.6-8.43,4.44-3.92,9-3.92c1.9,0,2.85.67,2.85,2a3.62,3.62,0,0,1-1,2.54,3.13,3.13,0,0,1-2.34,1.14c-.81,0-1.23-.33-1.23-1a2.32,2.32,0,0,1,.4-1.09,3.91,3.91,0,0,0,.45-1c.07-.24,0-.36-.36-.36q-1.46,0-4.16,2.81c-2,2.11-3,4.14-3,6.09,0,1.65.87,2.46,2.63,2.46q5.21,0,10.42-6.83c.27-.35.46-.33.58,0A2.08,2.08,0,0,1,173.16,108Z" transform="translate(-7.59 -61.97)"/><path class="cls-2" d="M189.4,108a2.05,2.05,0,0,0,.23-2c-.11-.38-.31-.4-.58,0q-5.38,6.9-10.86,6.91c-1.95,0-2.87-1-2.75-2.87a5.64,5.64,0,0,1,.18-1.05,13.44,13.44,0,0,0,7.88-2q3.27-2.06,3.45-4.63c.11-1.91-.95-2.87-3.21-2.87q-4.73,0-9,4t-4.29,7.92a4.65,4.65,0,0,0,1.52,3.65,6.1,6.1,0,0,0,4.26,1.38Q183,116.29,189.4,108Zm-13.24-.47a14,14,0,0,1,3.12-4.08c1.34-1.23,2.46-1.85,3.35-1.85.51,0,.64.31.41.94a7,7,0,0,1-2.33,2.76A11.2,11.2,0,0,1,176.16,107.52Z" transform="translate(-7.59 -61.97)"/></svg>