<svg id="Layer_1" data-name="Layer 1" xmlns="http://www.w3.org/2000/svg" viewBox="0 0 214.36 247.53"><defs><style>.cls-1{fill:#35c0f0;}.cls-2{fill:#fafdfd;}.cls-3{fill:#fff;}</style></defs><title>laptop</title><polygon class="cls-1" points="214.37 185.65 107.18 247.53 0 185.65 0 61.88 107.18 0 214.37 61.88 214.37 185.65"/><path class="cls-2" d="M346.21,450a.52.52,0,0,0-.37-.17h-96.4a.48.48,0,0,0-.37.17.49.49,0,0,0-.12.4c0,.09,1.47,9,12.75,9h71.87c11.29,0,12.74-8.93,12.76-9A.53.53,0,0,0,346.21,450Zm-41.32,6.29h-14.5V453h14.5Z" transform="translate(-190.46 -297.18)"/><path class="cls-3" d="M259.45,446.4h76.37a2,2,0,0,0,2-2V397.49a2,2,0,0,0-2-2H259.45a2,2,0,0,0-2,2V444.4A2,2,0,0,0,259.45,446.4Zm5-43.91h66.37V439.4H264.45Z" transform="translate(-190.46 -297.18)"/></svg>