<svg id="Layer_1" data-name="Layer 1" xmlns="http://www.w3.org/2000/svg" viewBox="0 0 214.37 247.53"><defs><style>.cls-1{fill:#fafdfd;}.cls-2{fill:#fff;}</style></defs><title>laptopblack</title><polygon points="214.37 185.65 107.18 247.53 0 185.65 0 61.88 107.18 0 214.37 61.88 214.37 185.65"/><path class="cls-1" d="M155.75,152.82a.53.53,0,0,0-.37-.17H59a.48.48,0,0,0-.37.17.49.49,0,0,0-.12.4c0,.09,1.47,9,12.75,9h71.87c11.29,0,12.74-8.93,12.76-9A.53.53,0,0,0,155.75,152.82Zm-41.32,6.29H99.93v-3.29h14.5Z" transform="translate(0 0)"/><path class="cls-2" d="M69,149.22h76.37a2,2,0,0,0,2-2V100.31a2,2,0,0,0-2-2H69a2,2,0,0,0-2,2v46.91A2,2,0,0,0,69,149.22Zm5-43.91h66.37v36.91H74Z" transform="translate(0 0)"/></svg>