<svg id="Layer_1" data-name="Layer 1" xmlns="http://www.w3.org/2000/svg" viewBox="0 0 214.37 247.53"><defs><style>.cls-1{fill:#fff;}</style></defs><title>smsblack</title><polygon points="214.37 185.65 107.18 247.53 0 185.65 0 61.88 107.18 0 214.37 61.88 214.37 185.65"/><path class="cls-1" d="M169.48,66a1.88,1.88,0,0,0-2-.3L45.32,122.43a1.87,1.87,0,0,0-.91,2.48,1.91,1.91,0,0,0,.91.91l34.56,17a1.86,1.86,0,0,0,2-.18l33.61-25.11L89,144.62a1.89,1.89,0,0,0-.53,1.46l2.63,34.2a1.87,1.87,0,0,0,1.28,1.65A2,2,0,0,0,93,182a1.9,1.9,0,0,0,1.43-.65l18.34-21.26L135.45,171a1.93,1.93,0,0,0,1.56,0,1.83,1.83,0,0,0,1-1.16L170,67.93A1.87,1.87,0,0,0,169.48,66Z" transform="translate(0 0)"/></svg>